G04 #@! TF.GenerationSoftware,KiCad,Pcbnew,(5.0.1)-4*
G04 #@! TF.CreationDate,2018-12-10T10:24:33+00:00*
G04 #@! TF.ProjectId,tinytetris,74696E797465747269732E6B69636164,rev?*
G04 #@! TF.SameCoordinates,Original*
G04 #@! TF.FileFunction,Copper,L1,Top,Signal*
G04 #@! TF.FilePolarity,Positive*
%FSLAX46Y46*%
G04 Gerber Fmt 4.6, Leading zero omitted, Abs format (unit mm)*
G04 Created by KiCad (PCBNEW (5.0.1)-4) date 10/12/2018 10:24:33*
%MOMM*%
%LPD*%
G01*
G04 APERTURE LIST*
G04 #@! TA.AperFunction,ComponentPad*
%ADD10O,2.600000X1.800000*%
G04 #@! TD*
G04 #@! TA.AperFunction,ComponentPad*
%ADD11C,2.000000*%
G04 #@! TD*
G04 #@! TA.AperFunction,ComponentPad*
%ADD12C,1.600000*%
G04 #@! TD*
G04 #@! TA.AperFunction,ComponentPad*
%ADD13O,1.600000X1.600000*%
G04 #@! TD*
G04 #@! TA.AperFunction,ComponentPad*
%ADD14R,1.600000X1.600000*%
G04 #@! TD*
G04 #@! TA.AperFunction,ComponentPad*
%ADD15R,1.700000X1.700000*%
G04 #@! TD*
G04 #@! TA.AperFunction,ComponentPad*
%ADD16O,1.700000X1.700000*%
G04 #@! TD*
G04 #@! TA.AperFunction,BGAPad,CuDef*
%ADD17C,10.750000*%
G04 #@! TD*
G04 #@! TA.AperFunction,ComponentPad*
%ADD18C,2.300000*%
G04 #@! TD*
G04 #@! TA.AperFunction,ViaPad*
%ADD19C,0.600000*%
G04 #@! TD*
G04 #@! TA.AperFunction,Conductor*
%ADD20C,0.250000*%
G04 #@! TD*
G04 #@! TA.AperFunction,Conductor*
%ADD21C,0.500000*%
G04 #@! TD*
G04 APERTURE END LIST*
D10*
G04 #@! TO.P,OLED 0.96'',1*
G04 #@! TO.N,N/C*
X140208000Y-95504000D03*
G04 #@! TO.P,OLED 0.96'',2*
X140208000Y-92964000D03*
G04 #@! TO.P,OLED 0.96'',3*
X140208000Y-90424000D03*
G04 #@! TO.P,OLED 0.96'',4*
X140208000Y-87884000D03*
G04 #@! TD*
D11*
G04 #@! TO.P,,2*
G04 #@! TO.N,N/C*
X163758000Y-113284000D03*
G04 #@! TO.P,,1*
X159258000Y-113284000D03*
G04 #@! TO.P,,2*
X163758000Y-106784000D03*
G04 #@! TO.P,,1*
X159258000Y-106784000D03*
G04 #@! TD*
G04 #@! TO.P,,2*
G04 #@! TO.N,N/C*
X145978000Y-113284000D03*
G04 #@! TO.P,,1*
X141478000Y-113284000D03*
G04 #@! TO.P,,2*
X145978000Y-106784000D03*
G04 #@! TO.P,,1*
X141478000Y-106784000D03*
G04 #@! TD*
D12*
G04 #@! TO.P,,1*
G04 #@! TO.N,N/C*
X154940000Y-96774000D03*
D13*
G04 #@! TO.P,,2*
X162560000Y-96774000D03*
G04 #@! TD*
D14*
G04 #@! TO.P,,1*
G04 #@! TO.N,N/C*
X143256000Y-96012000D03*
D13*
G04 #@! TO.P,,5*
X150876000Y-103632000D03*
G04 #@! TO.P,,2*
X143256000Y-98552000D03*
G04 #@! TO.P,,6*
X150876000Y-101092000D03*
G04 #@! TO.P,,3*
X143256000Y-101092000D03*
G04 #@! TO.P,,7*
X150876000Y-98552000D03*
G04 #@! TO.P,,4*
X143256000Y-103632000D03*
G04 #@! TO.P,,8*
X150876000Y-96012000D03*
G04 #@! TD*
D12*
G04 #@! TO.P,,1*
G04 #@! TO.N,N/C*
X154940000Y-99822000D03*
D13*
G04 #@! TO.P,,2*
X162560000Y-99822000D03*
G04 #@! TD*
D12*
G04 #@! TO.P,,1*
G04 #@! TO.N,N/C*
X162560000Y-103124000D03*
D13*
G04 #@! TO.P,,2*
X154940000Y-103124000D03*
G04 #@! TD*
D11*
G04 #@! TO.P,,2*
G04 #@! TO.N,N/C*
X154868000Y-113284000D03*
G04 #@! TO.P,,1*
X150368000Y-113284000D03*
G04 #@! TO.P,,2*
X154868000Y-106784000D03*
G04 #@! TO.P,,1*
X150368000Y-106784000D03*
G04 #@! TD*
D15*
G04 #@! TO.P,,1*
G04 #@! TO.N,N/C*
X165100000Y-103632000D03*
D16*
G04 #@! TO.P,,2*
X165100000Y-101092000D03*
G04 #@! TO.P,,3*
X165100000Y-98552000D03*
G04 #@! TO.P,,4*
X165100000Y-96012000D03*
G04 #@! TD*
D17*
G04 #@! TO.P,REF\002A\002A,2*
G04 #@! TO.N,N/C*
X152146000Y-82296000D03*
D18*
G04 #@! TO.P,REF\002A\002A,1*
X141746000Y-83796000D03*
X141746000Y-80696000D03*
X162546000Y-80696000D03*
X162546000Y-83796000D03*
G04 #@! TD*
D19*
G04 #@! TO.N,*
X148336000Y-92456000D03*
X143256000Y-93472000D03*
X143256000Y-91440000D03*
X147066000Y-97028000D03*
X147574000Y-96012000D03*
G04 #@! TD*
D20*
G04 #@! TO.N,*
X152146000Y-97155000D02*
X152146000Y-98171000D01*
X152146000Y-98171000D02*
X151765000Y-98552000D01*
X152146000Y-97282000D02*
X152146000Y-97155000D01*
X152146000Y-97155000D02*
X152146000Y-95377000D01*
X152146000Y-95377000D02*
X152908000Y-94615000D01*
X158750000Y-96520000D02*
X158750000Y-103378000D01*
X153670000Y-94615000D02*
X152908000Y-94615000D01*
X156845000Y-94615000D02*
X153670000Y-94615000D01*
X158750000Y-96520000D02*
X156845000Y-94615000D01*
X152781000Y-98552000D02*
X152781000Y-104371000D01*
X152781000Y-104371000D02*
X150368000Y-106784000D01*
X154940000Y-96774000D02*
X154940000Y-96901000D01*
X154940000Y-96901000D02*
X153289000Y-98552000D01*
X153289000Y-98552000D02*
X152781000Y-98552000D01*
X152781000Y-98552000D02*
X151765000Y-98552000D01*
X151765000Y-98552000D02*
X150876000Y-98552000D01*
D21*
X148336000Y-92456000D02*
X152146000Y-88646000D01*
X152146000Y-88646000D02*
X152146000Y-82296000D01*
X143256000Y-93472000D02*
X143256000Y-91440000D01*
D20*
X163830000Y-104902000D02*
X165100000Y-103632000D01*
X158750000Y-103378000D02*
X160274000Y-104902000D01*
X160274000Y-104902000D02*
X163830000Y-104902000D01*
X158750000Y-103378000D02*
X158750000Y-103378000D01*
X159258000Y-106784000D02*
X158600000Y-106784000D01*
X158600000Y-106784000D02*
X154940000Y-103124000D01*
X147066000Y-92964000D02*
X147066000Y-97028000D01*
X141986000Y-87884000D02*
X140208000Y-87884000D01*
X147066000Y-92964000D02*
X141986000Y-87884000D01*
X150622000Y-93980000D02*
X159004000Y-93980000D01*
X159004000Y-93980000D02*
X159512000Y-94488000D01*
X149479000Y-95123000D02*
X150622000Y-93980000D01*
X159512000Y-94488000D02*
X159512000Y-99568000D01*
X159512000Y-99568000D02*
X161290000Y-101346000D01*
X164846000Y-101346000D02*
X161290000Y-101346000D01*
X149479000Y-99187000D02*
X149479000Y-95123000D01*
X149479000Y-99187000D02*
X150876000Y-100584000D01*
X149860000Y-92710000D02*
X159766000Y-92710000D01*
X148844000Y-94742000D02*
X150241000Y-93345000D01*
X150876000Y-103632000D02*
X148844000Y-101600000D01*
X148844000Y-101600000D02*
X148844000Y-94742000D01*
X150876000Y-103632000D02*
X150876000Y-103632000D01*
X150241000Y-93345000D02*
X159385000Y-93345000D01*
X165100000Y-96012000D02*
X163068000Y-93980000D01*
X163068000Y-93980000D02*
X161036000Y-93980000D01*
X161036000Y-93980000D02*
X159766000Y-92710000D01*
X147574000Y-94996000D02*
X149860000Y-92710000D01*
X147574000Y-96012000D02*
X147574000Y-94996000D01*
X161798000Y-98298000D02*
X164846000Y-98298000D01*
X160274000Y-96774000D02*
X161798000Y-98298000D01*
X160274000Y-94234000D02*
X160274000Y-96774000D01*
X159385000Y-93345000D02*
X160274000Y-94234000D01*
X164846000Y-98298000D02*
X165100000Y-98552000D01*
X164846000Y-101346000D02*
X165100000Y-101092000D01*
X150876000Y-98552000D02*
X150876000Y-98552000D01*
X150876000Y-101092000D02*
X150876000Y-100584000D01*
X143510000Y-101092000D02*
X144780000Y-101092000D01*
X143510000Y-90424000D02*
X140208000Y-90424000D01*
X145796000Y-92710000D02*
X143510000Y-90424000D01*
X145796000Y-100076000D02*
X145796000Y-92710000D01*
X144780000Y-101092000D02*
X145796000Y-100076000D01*
X143256000Y-103124000D02*
X141986000Y-101854000D01*
X141986000Y-101854000D02*
X141986000Y-93726000D01*
X141986000Y-93726000D02*
X141224000Y-92964000D01*
X141224000Y-92964000D02*
X140208000Y-92964000D01*
G04 #@! TD*
M02*
