M48
;DRILL file {KiCad (5.0.1)-4} date 10/12/2018 10:25:47
;FORMAT={-:-/ absolute / inch / decimal}
FMAT,2
INCH,TZ
T1C0.0157
T2C0.0315
T3C0.0394
T4C0.0433
T5C0.0472
%
G90
G05
M72
T1
X5.64Y-3.6
X5.64Y-3.68
X5.79Y-3.82
X5.81Y-3.78
X5.84Y-3.64
T2
X6.1Y-3.93
X6.4Y-3.93
X5.64Y-3.78
X5.64Y-3.88
X5.64Y-3.98
X5.64Y-4.08
X5.94Y-3.78
X5.94Y-3.88
X5.94Y-3.98
X5.94Y-4.08
X6.1Y-4.06
X6.4Y-4.06
X6.1Y-3.81
X6.4Y-3.81
T3
X6.5Y-3.78
X6.5Y-3.88
X6.5Y-3.98
X6.5Y-4.08
X5.5806Y-3.177
X5.5806Y-3.2991
X6.3994Y-3.177
X6.3994Y-3.2991
T4
X5.92Y-4.2041
X5.92Y-4.46
X6.0972Y-4.2041
X6.0972Y-4.46
X5.57Y-4.2041
X5.57Y-4.46
X5.7472Y-4.2041
X5.7472Y-4.46
X6.27Y-4.2041
X6.27Y-4.46
X6.4472Y-4.2041
X6.4472Y-4.46
T5
X5.52Y-3.46
X5.52Y-3.56
X5.52Y-3.66
X5.52Y-3.76
T0
M30
