G04 #@! TF.GenerationSoftware,KiCad,Pcbnew,(5.0.1)-4*
G04 #@! TF.CreationDate,2018-12-10T10:24:34+00:00*
G04 #@! TF.ProjectId,tinytetris,74696E797465747269732E6B69636164,rev?*
G04 #@! TF.SameCoordinates,Original*
G04 #@! TF.FileFunction,Other,Fab,Top*
%FSLAX46Y46*%
G04 Gerber Fmt 4.6, Leading zero omitted, Abs format (unit mm)*
G04 Created by KiCad (PCBNEW (5.0.1)-4) date 10/12/2018 10:24:34*
%MOMM*%
%LPD*%
G01*
G04 APERTURE LIST*
%ADD10C,0.300000*%
%ADD11C,0.100000*%
%ADD12C,0.150000*%
G04 APERTURE END LIST*
D10*
X146058714Y-62995428D02*
X146130142Y-62924000D01*
X146273000Y-62852571D01*
X146630142Y-62852571D01*
X146773000Y-62924000D01*
X146844428Y-62995428D01*
X146915857Y-63138285D01*
X146915857Y-63281142D01*
X146844428Y-63495428D01*
X145987285Y-64352571D01*
X146915857Y-64352571D01*
X147630142Y-64352571D02*
X147915857Y-64352571D01*
X148058714Y-64281142D01*
X148130142Y-64209714D01*
X148273000Y-63995428D01*
X148344428Y-63709714D01*
X148344428Y-63138285D01*
X148273000Y-62995428D01*
X148201571Y-62924000D01*
X148058714Y-62852571D01*
X147773000Y-62852571D01*
X147630142Y-62924000D01*
X147558714Y-62995428D01*
X147487285Y-63138285D01*
X147487285Y-63495428D01*
X147558714Y-63638285D01*
X147630142Y-63709714D01*
X147773000Y-63781142D01*
X148058714Y-63781142D01*
X148201571Y-63709714D01*
X148273000Y-63638285D01*
X148344428Y-63495428D01*
X148987285Y-64209714D02*
X149058714Y-64281142D01*
X148987285Y-64352571D01*
X148915857Y-64281142D01*
X148987285Y-64209714D01*
X148987285Y-64352571D01*
X149630142Y-62995428D02*
X149701571Y-62924000D01*
X149844428Y-62852571D01*
X150201571Y-62852571D01*
X150344428Y-62924000D01*
X150415857Y-62995428D01*
X150487285Y-63138285D01*
X150487285Y-63281142D01*
X150415857Y-63495428D01*
X149558714Y-64352571D01*
X150487285Y-64352571D01*
X151915857Y-64352571D02*
X151058714Y-64352571D01*
X151487285Y-64352571D02*
X151487285Y-62852571D01*
X151344428Y-63066857D01*
X151201571Y-63209714D01*
X151058714Y-63281142D01*
X152844428Y-62852571D02*
X152987285Y-62852571D01*
X153130142Y-62924000D01*
X153201571Y-62995428D01*
X153273000Y-63138285D01*
X153344428Y-63424000D01*
X153344428Y-63781142D01*
X153273000Y-64066857D01*
X153201571Y-64209714D01*
X153130142Y-64281142D01*
X152987285Y-64352571D01*
X152844428Y-64352571D01*
X152701571Y-64281142D01*
X152630142Y-64209714D01*
X152558714Y-64066857D01*
X152487285Y-63781142D01*
X152487285Y-63424000D01*
X152558714Y-63138285D01*
X152630142Y-62995428D01*
X152701571Y-62924000D01*
X152844428Y-62852571D01*
X155130142Y-64352571D02*
X155130142Y-63352571D01*
X155130142Y-63495428D02*
X155201571Y-63424000D01*
X155344428Y-63352571D01*
X155558714Y-63352571D01*
X155701571Y-63424000D01*
X155773000Y-63566857D01*
X155773000Y-64352571D01*
X155773000Y-63566857D02*
X155844428Y-63424000D01*
X155987285Y-63352571D01*
X156201571Y-63352571D01*
X156344428Y-63424000D01*
X156415857Y-63566857D01*
X156415857Y-64352571D01*
X157130142Y-64352571D02*
X157130142Y-63352571D01*
X157130142Y-63495428D02*
X157201571Y-63424000D01*
X157344428Y-63352571D01*
X157558714Y-63352571D01*
X157701571Y-63424000D01*
X157773000Y-63566857D01*
X157773000Y-64352571D01*
X157773000Y-63566857D02*
X157844428Y-63424000D01*
X157987285Y-63352571D01*
X158201571Y-63352571D01*
X158344428Y-63424000D01*
X158415857Y-63566857D01*
X158415857Y-64352571D01*
X137668000Y-65024000D02*
X166878000Y-65024000D01*
X137668000Y-76454000D02*
X137668000Y-62324000D01*
X166878000Y-76454000D02*
X166878000Y-62324000D01*
X166878000Y-65024000D02*
X165751496Y-65610421D01*
X166878000Y-65024000D02*
X165751496Y-64437579D01*
X137668000Y-65024000D02*
X138794504Y-65610421D01*
X137668000Y-65024000D02*
X138794504Y-64437579D01*
X134853428Y-89853285D02*
X134853428Y-90781857D01*
X134282000Y-90281857D01*
X134282000Y-90496142D01*
X134210571Y-90639000D01*
X134139142Y-90710428D01*
X133996285Y-90781857D01*
X133639142Y-90781857D01*
X133496285Y-90710428D01*
X133424857Y-90639000D01*
X133353428Y-90496142D01*
X133353428Y-90067571D01*
X133424857Y-89924714D01*
X133496285Y-89853285D01*
X133353428Y-91496142D02*
X133353428Y-91781857D01*
X133424857Y-91924714D01*
X133496285Y-91996142D01*
X133710571Y-92139000D01*
X133996285Y-92210428D01*
X134567714Y-92210428D01*
X134710571Y-92139000D01*
X134782000Y-92067571D01*
X134853428Y-91924714D01*
X134853428Y-91639000D01*
X134782000Y-91496142D01*
X134710571Y-91424714D01*
X134567714Y-91353285D01*
X134210571Y-91353285D01*
X134067714Y-91424714D01*
X133996285Y-91496142D01*
X133924857Y-91639000D01*
X133924857Y-91924714D01*
X133996285Y-92067571D01*
X134067714Y-92139000D01*
X134210571Y-92210428D01*
X133496285Y-92853285D02*
X133424857Y-92924714D01*
X133353428Y-92853285D01*
X133424857Y-92781857D01*
X133496285Y-92853285D01*
X133353428Y-92853285D01*
X134853428Y-93424714D02*
X134853428Y-94353285D01*
X134282000Y-93853285D01*
X134282000Y-94067571D01*
X134210571Y-94210428D01*
X134139142Y-94281857D01*
X133996285Y-94353285D01*
X133639142Y-94353285D01*
X133496285Y-94281857D01*
X133424857Y-94210428D01*
X133353428Y-94067571D01*
X133353428Y-93639000D01*
X133424857Y-93496142D01*
X133496285Y-93424714D01*
X134853428Y-94853285D02*
X134853428Y-95853285D01*
X133353428Y-95210428D01*
X134853428Y-96710428D02*
X134853428Y-96853285D01*
X134782000Y-96996142D01*
X134710571Y-97067571D01*
X134567714Y-97139000D01*
X134282000Y-97210428D01*
X133924857Y-97210428D01*
X133639142Y-97139000D01*
X133496285Y-97067571D01*
X133424857Y-96996142D01*
X133353428Y-96853285D01*
X133353428Y-96710428D01*
X133424857Y-96567571D01*
X133496285Y-96496142D01*
X133639142Y-96424714D01*
X133924857Y-96353285D01*
X134282000Y-96353285D01*
X134567714Y-96424714D01*
X134710571Y-96496142D01*
X134782000Y-96567571D01*
X134853428Y-96710428D01*
X133353428Y-98996142D02*
X134353428Y-98996142D01*
X134210571Y-98996142D02*
X134282000Y-99067571D01*
X134353428Y-99210428D01*
X134353428Y-99424714D01*
X134282000Y-99567571D01*
X134139142Y-99639000D01*
X133353428Y-99639000D01*
X134139142Y-99639000D02*
X134282000Y-99710428D01*
X134353428Y-99853285D01*
X134353428Y-100067571D01*
X134282000Y-100210428D01*
X134139142Y-100281857D01*
X133353428Y-100281857D01*
X133353428Y-100996142D02*
X134353428Y-100996142D01*
X134210571Y-100996142D02*
X134282000Y-101067571D01*
X134353428Y-101210428D01*
X134353428Y-101424714D01*
X134282000Y-101567571D01*
X134139142Y-101639000D01*
X133353428Y-101639000D01*
X134139142Y-101639000D02*
X134282000Y-101710428D01*
X134353428Y-101853285D01*
X134353428Y-102067571D01*
X134282000Y-102210428D01*
X134139142Y-102281857D01*
X133353428Y-102281857D01*
X135382000Y-76454000D02*
X135382000Y-115824000D01*
X138176000Y-76454000D02*
X132682000Y-76454000D01*
X138176000Y-115824000D02*
X132682000Y-115824000D01*
X135382000Y-115824000D02*
X134795579Y-114697496D01*
X135382000Y-115824000D02*
X135968421Y-114697496D01*
X135382000Y-76454000D02*
X134795579Y-77580504D01*
X135382000Y-76454000D02*
X135968421Y-77580504D01*
D11*
G04 #@! TO.C,*
X158508000Y-110034000D02*
X158508000Y-107034000D01*
X158508000Y-107034000D02*
X164508000Y-107034000D01*
X164508000Y-107034000D02*
X164508000Y-113034000D01*
X164508000Y-113034000D02*
X158508000Y-113034000D01*
X158508000Y-113034000D02*
X158508000Y-110034000D01*
X163523564Y-110034000D02*
G75*
G03X163523564Y-110034000I-2015564J0D01*
G01*
X140728000Y-110034000D02*
X140728000Y-107034000D01*
X140728000Y-107034000D02*
X146728000Y-107034000D01*
X146728000Y-107034000D02*
X146728000Y-113034000D01*
X146728000Y-113034000D02*
X140728000Y-113034000D01*
X140728000Y-113034000D02*
X140728000Y-110034000D01*
X145743564Y-110034000D02*
G75*
G03X145743564Y-110034000I-2015564J0D01*
G01*
X155600000Y-95524000D02*
X155600000Y-98024000D01*
X155600000Y-98024000D02*
X161900000Y-98024000D01*
X161900000Y-98024000D02*
X161900000Y-95524000D01*
X161900000Y-95524000D02*
X155600000Y-95524000D01*
X154940000Y-96774000D02*
X155600000Y-96774000D01*
X162560000Y-96774000D02*
X161900000Y-96774000D01*
X144891000Y-94742000D02*
X150241000Y-94742000D01*
X150241000Y-94742000D02*
X150241000Y-104902000D01*
X150241000Y-104902000D02*
X143891000Y-104902000D01*
X143891000Y-104902000D02*
X143891000Y-95742000D01*
X143891000Y-95742000D02*
X144891000Y-94742000D01*
X155600000Y-98572000D02*
X155600000Y-101072000D01*
X155600000Y-101072000D02*
X161900000Y-101072000D01*
X161900000Y-101072000D02*
X161900000Y-98572000D01*
X161900000Y-98572000D02*
X155600000Y-98572000D01*
X154940000Y-99822000D02*
X155600000Y-99822000D01*
X162560000Y-99822000D02*
X161900000Y-99822000D01*
X161900000Y-104374000D02*
X161900000Y-101874000D01*
X161900000Y-101874000D02*
X155600000Y-101874000D01*
X155600000Y-101874000D02*
X155600000Y-104374000D01*
X155600000Y-104374000D02*
X161900000Y-104374000D01*
X162560000Y-103124000D02*
X161900000Y-103124000D01*
X154940000Y-103124000D02*
X155600000Y-103124000D01*
X149618000Y-110034000D02*
X149618000Y-107034000D01*
X149618000Y-107034000D02*
X155618000Y-107034000D01*
X155618000Y-107034000D02*
X155618000Y-113034000D01*
X155618000Y-113034000D02*
X149618000Y-113034000D01*
X149618000Y-113034000D02*
X149618000Y-110034000D01*
X154633564Y-110034000D02*
G75*
G03X154633564Y-110034000I-2015564J0D01*
G01*
X166370000Y-104902000D02*
X166370000Y-94742000D01*
X166370000Y-94742000D02*
X163830000Y-94742000D01*
X163830000Y-94742000D02*
X163830000Y-104902000D01*
X163830000Y-104902000D02*
X166370000Y-104902000D01*
G04 #@! TD*
G04 #@! TO.C,OLED 0.96''*
D12*
G04 #@! TO.C,*
X168092380Y-103409285D02*
X167092380Y-103409285D01*
X167092380Y-103028333D01*
X167140000Y-102933095D01*
X167187619Y-102885476D01*
X167282857Y-102837857D01*
X167425714Y-102837857D01*
X167520952Y-102885476D01*
X167568571Y-102933095D01*
X167616190Y-103028333D01*
X167616190Y-103409285D01*
X168092380Y-101837857D02*
X167616190Y-102171190D01*
X168092380Y-102409285D02*
X167092380Y-102409285D01*
X167092380Y-102028333D01*
X167140000Y-101933095D01*
X167187619Y-101885476D01*
X167282857Y-101837857D01*
X167425714Y-101837857D01*
X167520952Y-101885476D01*
X167568571Y-101933095D01*
X167616190Y-102028333D01*
X167616190Y-102409285D01*
X167092380Y-101218809D02*
X167092380Y-101028333D01*
X167140000Y-100933095D01*
X167235238Y-100837857D01*
X167425714Y-100790238D01*
X167759047Y-100790238D01*
X167949523Y-100837857D01*
X168044761Y-100933095D01*
X168092380Y-101028333D01*
X168092380Y-101218809D01*
X168044761Y-101314047D01*
X167949523Y-101409285D01*
X167759047Y-101456904D01*
X167425714Y-101456904D01*
X167235238Y-101409285D01*
X167140000Y-101314047D01*
X167092380Y-101218809D01*
X167140000Y-99837857D02*
X167092380Y-99933095D01*
X167092380Y-100075952D01*
X167140000Y-100218809D01*
X167235238Y-100314047D01*
X167330476Y-100361666D01*
X167520952Y-100409285D01*
X167663809Y-100409285D01*
X167854285Y-100361666D01*
X167949523Y-100314047D01*
X168044761Y-100218809D01*
X168092380Y-100075952D01*
X168092380Y-99980714D01*
X168044761Y-99837857D01*
X167997142Y-99790238D01*
X167663809Y-99790238D01*
X167663809Y-99980714D01*
X167425714Y-98599761D02*
X168425714Y-98599761D01*
X167473333Y-98599761D02*
X167425714Y-98504523D01*
X167425714Y-98314047D01*
X167473333Y-98218809D01*
X167520952Y-98171190D01*
X167616190Y-98123571D01*
X167901904Y-98123571D01*
X167997142Y-98171190D01*
X168044761Y-98218809D01*
X168092380Y-98314047D01*
X168092380Y-98504523D01*
X168044761Y-98599761D01*
X168092380Y-97695000D02*
X167425714Y-97695000D01*
X167092380Y-97695000D02*
X167140000Y-97742619D01*
X167187619Y-97695000D01*
X167140000Y-97647380D01*
X167092380Y-97695000D01*
X167187619Y-97695000D01*
X167425714Y-97218809D02*
X168092380Y-97218809D01*
X167520952Y-97218809D02*
X167473333Y-97171190D01*
X167425714Y-97075952D01*
X167425714Y-96933095D01*
X167473333Y-96837857D01*
X167568571Y-96790238D01*
X168092380Y-96790238D01*
X168044761Y-96361666D02*
X168092380Y-96266428D01*
X168092380Y-96075952D01*
X168044761Y-95980714D01*
X167949523Y-95933095D01*
X167901904Y-95933095D01*
X167806666Y-95980714D01*
X167759047Y-96075952D01*
X167759047Y-96218809D01*
X167711428Y-96314047D01*
X167616190Y-96361666D01*
X167568571Y-96361666D01*
X167473333Y-96314047D01*
X167425714Y-96218809D01*
X167425714Y-96075952D01*
X167473333Y-95980714D01*
G04 #@! TO.C,REF\002A\002A*
X157162761Y-77827142D02*
X157115142Y-77874761D01*
X156972285Y-77922380D01*
X156877047Y-77922380D01*
X156734190Y-77874761D01*
X156638952Y-77779523D01*
X156591333Y-77684285D01*
X156543714Y-77493809D01*
X156543714Y-77350952D01*
X156591333Y-77160476D01*
X156638952Y-77065238D01*
X156734190Y-76970000D01*
X156877047Y-76922380D01*
X156972285Y-76922380D01*
X157115142Y-76970000D01*
X157162761Y-77017619D01*
X158162761Y-77922380D02*
X157829428Y-77446190D01*
X157591333Y-77922380D02*
X157591333Y-76922380D01*
X157972285Y-76922380D01*
X158067523Y-76970000D01*
X158115142Y-77017619D01*
X158162761Y-77112857D01*
X158162761Y-77255714D01*
X158115142Y-77350952D01*
X158067523Y-77398571D01*
X157972285Y-77446190D01*
X157591333Y-77446190D01*
X158543714Y-77017619D02*
X158591333Y-76970000D01*
X158686571Y-76922380D01*
X158924666Y-76922380D01*
X159019904Y-76970000D01*
X159067523Y-77017619D01*
X159115142Y-77112857D01*
X159115142Y-77208095D01*
X159067523Y-77350952D01*
X158496095Y-77922380D01*
X159115142Y-77922380D01*
X159734190Y-76922380D02*
X159829428Y-76922380D01*
X159924666Y-76970000D01*
X159972285Y-77017619D01*
X160019904Y-77112857D01*
X160067523Y-77303333D01*
X160067523Y-77541428D01*
X160019904Y-77731904D01*
X159972285Y-77827142D01*
X159924666Y-77874761D01*
X159829428Y-77922380D01*
X159734190Y-77922380D01*
X159638952Y-77874761D01*
X159591333Y-77827142D01*
X159543714Y-77731904D01*
X159496095Y-77541428D01*
X159496095Y-77303333D01*
X159543714Y-77112857D01*
X159591333Y-77017619D01*
X159638952Y-76970000D01*
X159734190Y-76922380D01*
X160400857Y-76922380D02*
X161019904Y-76922380D01*
X160686571Y-77303333D01*
X160829428Y-77303333D01*
X160924666Y-77350952D01*
X160972285Y-77398571D01*
X161019904Y-77493809D01*
X161019904Y-77731904D01*
X160972285Y-77827142D01*
X160924666Y-77874761D01*
X160829428Y-77922380D01*
X160543714Y-77922380D01*
X160448476Y-77874761D01*
X160400857Y-77827142D01*
X161400857Y-77017619D02*
X161448476Y-76970000D01*
X161543714Y-76922380D01*
X161781809Y-76922380D01*
X161877047Y-76970000D01*
X161924666Y-77017619D01*
X161972285Y-77112857D01*
X161972285Y-77208095D01*
X161924666Y-77350952D01*
X161353238Y-77922380D01*
X161972285Y-77922380D01*
G04 #@! TD*
M02*
